{
  "accessors": [
    {
      "bufferView": 2,
      "componentType": 5126,
      "count": 5417,
      "max": [
        11.138561248779297,
        17.605440139770508,
        40.94915771484375
      ],
      "min": [
        -11.138561248779297,
        -0.0060411179438233376,
        -38.26761245727539
      ],
      "type": "VEC3"
    },
    {
      "bufferView": 2,
      "byteOffset": 65004,
      "componentType": 5126,
      "count": 5417,
      "max": [
        1.0,
        0.9999932050704956,
        0.9999932050704956
      ],
      "min": [
        -1.0,
        -0.9999931454658508,
        -0.9999962449073792
      ],
      "type": "VEC3"
    },
    {
      "bufferView": 3,
      "componentType": 5126,
      "count": 5417,
      "max": [
        1.0,
        0.9999927878379822,
        1.0,
        1.0
      ],
      "min": [
        -1.0,
        -0.9999927282333374,
        -1.0,
        -1.0
      ],
      "type": "VEC4"
    },
    {
      "bufferView": 1,
      "componentType": 5126,
      "count": 5417,
      "max": [
        0.9951068162918091,
        0.9947981834411621
      ],
      "min": [
        0.009545475244522095,
        0.007145822048187256
      ],
      "type": "VEC2"
    },
    {
      "bufferView": 0,
      "componentType": 5125,
      "count": 18708,
      "type": "SCALAR"
    }
  ],
  "asset": {
    "extras": {
      "author": "vikask (https://sketchfab.com/vikask)",
      "license": "CC-BY-4.0 (http://creativecommons.org/licenses/by/4.0/)",
      "source": "https://sketchfab.com/3d-models/skateboard-45216c79e4a64f73a1df7739cb040300",
      "title": "Skateboard"
    },
    "generator": "Sketchfab-12.68.0",
    "version": "2.0"
  },
  "bufferViews": [
    {
      "buffer": 0,
      "byteLength": 74832,
      "name": "floatBufferViews",
      "target": 34963
    },
    {
      "buffer": 0,
      "byteLength": 43336,
      "byteOffset": 74832,
      "byteStride": 8,
      "name": "floatBufferViews",
      "target": 34962
    },
    {
      "buffer": 0,
      "byteLength": 130008,
      "byteOffset": 118168,
      "byteStride": 12,
      "name": "floatBufferViews",
      "target": 34962
    },
    {
      "buffer": 0,
      "byteLength": 86672,
      "byteOffset": 248176,
      "byteStride": 16,
      "name": "floatBufferViews",
      "target": 34962
    }
  ],
  "buffers": [
    {
      "byteLength": 334848,
      "uri": "scene.bin"
    }
  ],
  "images": [
    {
      "uri": "textures/M_GB14_Skateboard_baseColor.png"
    },
    {
      "uri": "textures/M_GB14_Skateboard_metallicRoughness.png"
    },
    {
      "uri": "textures/M_GB14_Skateboard_normal.png"
    }
  ],
  "materials": [
    {
      "doubleSided": true,
      "name": "M_GB14_Skateboard",
      "normalTexture": {
        "index": 2
      },
      "occlusionTexture": {
        "index": 1
      },
      "pbrMetallicRoughness": {
        "baseColorTexture": {
          "index": 0
        },
        "metallicRoughnessTexture": {
          "index": 1
        }
      }
    }
  ],
  "meshes": [
    {
      "name": "GB14_Skateboard_M_GB14_Skateboard_0",
      "primitives": [
        {
          "attributes": {
            "NORMAL": 1,
            "POSITION": 0,
            "TANGENT": 2,
            "TEXCOORD_0": 3
          },
          "indices": 4,
          "material": 0,
          "mode": 4
        }
      ]
    }
  ],
  "nodes": [
    {
      "children": [
        1
      ],
      "matrix": [
        0.010486007668077946,
        0.0,
        0.0,
        0.0,
        0.0,
        2.3283614298992163e-18,
        -0.010486007668077946,
        0.0,
        0.0,
        0.010486007668077946,
        2.3283614298992163e-18,
        0.0,
        0.0,
        0.0,
        0.0,
        1.0
      ],
      "name": "Sketchfab_model"
    },
    {
      "children": [
        2
      ],
      "matrix": [
        1.0,
        0.0,
        0.0,
        0.0,
        0.0,
        0.0,
        1.0,
        0.0,
        0.0,
        -1.0,
        0.0,
        0.0,
        0.0,
        0.0,
        0.0,
        1.0
      ],
      "name": "779274d5ba3c462e98a02dd2853381d6.fbx"
    },
    {
      "children": [
        3
      ],
      "name": "RootNode"
    },
    {
      "children": [
        4
      ],
      "name": "GB14_Skateboard"
    },
    {
      "mesh": 0,
      "name": "GB14_Skateboard_M_GB14_Skateboard_0"
    }
  ],
  "samplers": [
    {
      "magFilter": 9729,
      "minFilter": 9987,
      "wrapS": 10497,
      "wrapT": 10497
    }
  ],
  "scene": 0,
  "scenes": [
    {
      "name": "Sketchfab_Scene",
      "nodes": [
        0
      ]
    }
  ],
  "textures": [
    {
      "sampler": 0,
      "source": 0
    },
    {
      "sampler": 0,
      "source": 1
    },
    {
      "sampler": 0,
      "source": 2
    }
  ]
}
